<svg width="187" height="43" viewBox="0 0 187 43" fill="none" xmlns="http://www.w3.org/2000/svg">
<path d="M33.4064 9.56753L32.9978 7.19654L32.109 8.31382L31.774 6.10376L30.8145 7.4037L30.5159 5.43382L29.6381 6.62317L29.354 4.74938L28.3945 6.04938L28.1251 4.27169L27.2676 5.43337L27.02 3.79982L25.946 4.99424L25.6911 3.31264L24.7812 4.77715L23.8702 2.82612L23.2671 4.36711L21.8021 2.81928L20.8848 4.23576L20.1983 2.7914L19.5566 4.23994L18.709 2.86909L18.1613 4.45085L17.0491 3.12001L17.132 4.80304L15.387 3.51869L15.6164 5.03214L14.1761 3.97204L14.4055 5.48548L13.0206 4.46616L13.2718 6.12373L11.9146 5.1248L12.1513 6.68629L10.8772 5.74852L11.103 7.23794L9.93965 6.3817L10.1873 8.01526L9.02395 7.15903L9.29342 8.93672L8.01345 8.1227L8.27564 9.85235L7.09918 9.07182L7.38322 10.9456L6.01938 10.39L6.61615 12.2165L4.92203 12.0794L5.69305 13.7567L4.12286 13.6255L5.16656 14.9913L3.45853 15.2494L4.70495 16.1668L3.11721 16.4068C3.58955 16.6549 4.43801 17.1655 4.43801 17.1655L2.77809 17.4165L4.23661 18.5967L2.51103 19.2261L3.85148 20.2767L2.3839 21.3095L4.09182 21.8622L2.65701 23.1112L4.17689 23.3975L2.87915 24.5766L4.42087 25.007L3.16683 26.4744L4.82376 26.6908L3.84383 28.0185L5.35941 27.7894L4.23878 29.1629L5.80247 28.9265L4.74088 30.3648L6.6173 30.0811L5.71605 31.7655L7.35191 31.5182L6.74519 33.0352L8.5735 32.7588L8.14533 34.642L9.89132 33.9849L9.4413 35.7239L11.0211 34.9445L10.8058 36.7709L12.1684 35.5328L12.0566 37.3927L13.452 36.3708L13.3738 38.1274L14.8232 36.9745L15.0999 38.8002L16.1411 37.3896L16.5994 39.1142L17.5866 37.8346L18.4998 39.6379L19.382 38.153L20.3754 39.6738L21.378 38.1707L22.6119 39.6552L23.0466 38.1396L24.2718 39.4043L24.4659 37.9251L26.1001 39.1279L25.8525 37.4943L27.3759 38.6156L27.1283 36.982L28.6517 38.1033L28.4114 36.5177L29.7409 37.4963L29.5188 36.0309L30.7929 36.9687L30.5271 35.215L32.5032 35.7518L32.104 34.092L34.0233 34.4162L33.5206 32.7229L35.3677 33.058L34.5034 31.7389L36.3557 31.4589L35.2055 30.5269L37.2744 30.2142L36.028 29.2968L37.8082 29.0277L36.6398 27.9757L38.4441 27.7029L37.1422 26.7448L38.9006 26.3315L37.4821 25.4156L39.2712 24.5554L37.8432 23.7392L39.5069 22.7013L37.9485 21.5116L39.5663 20.3333L37.8919 19.6772L39.2604 18.3154L37.5896 17.6833L38.8138 16.3433L37.4112 16.5062L38.4932 15.0402L36.8573 15.2875L37.9802 13.7663L36.3684 14.0099L37.1793 12.2163L35.6156 12.4527L36.1837 10.8433L34.7643 11.0578L35.0241 9.20014L33.4064 9.56753ZM33.4064 9.56753L34.3528 8.34325" stroke="black" stroke-width="0.5"/>
<path d="M17.9674 18.5181L11.4598 29.0395L21.2876 29.2107M17.9674 18.5181L21.2948 13.1678L30.4784 29.3708L24.245 29.2622L17.9674 18.5181Z" stroke="black" stroke-width="2"/>
<g clip-path="url(#clip0_824_16)">
<path d="M42 36.4V35.36L44 35.16C44.5067 35.1067 44.84 34.9467 45 34.68C45.16 34.3867 45.24 33.8533 45.24 33.08V10.6C45.24 9.93333 45.1467 9.46667 44.96 9.2C44.8 8.93333 44.4533 8.77333 43.92 8.72L42 8.56V7.52H61.2L62.36 14.76L61.2 15.04C60.7467 13.7067 60.2933 12.6267 59.84 11.8C59.4133 10.9733 58.9333 10.3467 58.4 9.92C57.8933 9.49333 57.3067 9.2 56.64 9.04C55.9733 8.88 55.1733 8.8 54.24 8.8H50.84V21.4H53.8C54.6533 21.4 55.2933 21.32 55.72 21.16C56.1467 20.9733 56.48 20.6267 56.72 20.12C56.96 19.5867 57.2133 18.8133 57.48 17.8L58.52 17.68V26.6L57.48 26.76C57.24 25.5867 56.9867 24.72 56.72 24.16C56.48 23.6 56.1333 23.2267 55.68 23.04C55.2267 22.8267 54.5867 22.72 53.76 22.72H50.84V33.16C50.84 33.8533 50.92 34.36 51.08 34.68C51.2667 34.9733 51.6933 35.1467 52.36 35.2L55.04 35.36V36.4H42ZM65.1872 36.4V35.36L67.1072 35.12C67.5605 35.0667 67.8405 34.9067 67.9472 34.64C68.0805 34.3733 68.1472 33.9067 68.1472 33.24V19.68C68.1472 18.7733 68.0672 18.1467 67.9072 17.8C67.7472 17.4533 67.3605 17.2533 66.7472 17.2L65.0272 17.04L65.1472 16L73.1072 15.6L73.4672 15.84V33.32C73.4672 33.9333 73.5339 34.3733 73.6672 34.64C73.8005 34.88 74.0939 35.04 74.5472 35.12L76.4672 35.4V36.4H65.1872ZM70.3072 11.88C69.2672 11.88 68.4405 11.6133 67.8272 11.08C67.2139 10.52 66.9072 9.77333 66.9072 8.84C66.9072 7.93333 67.2139 7.2 67.8272 6.64C68.4405 6.05333 69.2672 5.76 70.3072 5.76C71.3739 5.76 72.2005 6.04 72.7872 6.6C73.4005 7.16 73.7072 7.90667 73.7072 8.84C73.7072 9.74667 73.4005 10.48 72.7872 11.04C72.1739 11.6 71.3472 11.88 70.3072 11.88ZM79.0972 36.4V35.36L80.8172 35.16C81.2439 35.1067 81.5239 34.96 81.6572 34.72C81.7905 34.4533 81.8572 33.9733 81.8572 33.28V19.6C81.8572 18.72 81.7639 18.12 81.5772 17.8C81.4172 17.4533 81.0439 17.2533 80.4572 17.2L78.7372 17L78.8572 16L86.4972 15.56L86.8172 15.84L86.8572 19.72H86.8972C87.5372 18.2533 88.4572 17.1467 89.6572 16.4C90.8839 15.6533 92.2439 15.28 93.7372 15.28C95.1772 15.28 96.3772 15.5467 97.3372 16.08C98.2972 16.6133 99.0172 17.4133 99.4972 18.48C100.004 19.52 100.257 20.8 100.257 22.32V33.52C100.257 34.1333 100.337 34.5467 100.497 34.76C100.657 34.9733 100.991 35.1067 101.497 35.16L103.097 35.36V36.4H92.3772V35.4L93.8572 35.2C94.3372 35.1467 94.6439 35 94.7772 34.76C94.9105 34.52 94.9772 34.1067 94.9772 33.52V22.44C94.9772 21.2133 94.8705 20.2533 94.6572 19.56C94.4705 18.84 94.1372 18.3333 93.6572 18.04C93.1772 17.7467 92.5239 17.6 91.6972 17.6C90.8172 17.6 90.0305 17.8133 89.3372 18.24C88.6439 18.6667 88.0972 19.2667 87.6972 20.04C87.3239 20.8133 87.1372 21.7333 87.1372 22.8V33.4C87.1372 34.0133 87.1905 34.44 87.2972 34.68C87.4305 34.92 87.6972 35.0667 88.0972 35.12L89.8172 35.4V36.4H79.0972ZM112.601 36.96C111.455 36.96 110.468 36.76 109.641 36.36C108.815 35.96 108.188 35.32 107.761 34.44C107.335 33.56 107.121 32.4 107.121 30.96V17.16H104.281V16.12C105.401 16.0133 106.295 15.7333 106.961 15.28C107.628 14.8267 108.135 14.1467 108.481 13.24C108.828 12.3067 109.095 11.0933 109.281 9.6L111.961 9.24L112.401 9.48V15.84H118.081V17.16H112.401V30.32C112.401 31.4667 112.588 32.3467 112.961 32.96C113.361 33.5733 114.028 33.88 114.961 33.88C115.601 33.88 116.228 33.7467 116.841 33.48C117.455 33.2133 118.028 32.8267 118.561 32.32L119.161 33.12C118.308 34.32 117.361 35.2667 116.321 35.96C115.308 36.6267 114.068 36.96 112.601 36.96ZM130.499 36.96C128.499 36.96 126.765 36.56 125.299 35.76C123.832 34.9333 122.699 33.7467 121.899 32.2C121.125 30.6267 120.739 28.7333 120.739 26.52C120.739 24.12 121.179 22.0933 122.059 20.44C122.965 18.76 124.205 17.48 125.779 16.6C127.352 15.72 129.152 15.28 131.179 15.28C132.805 15.28 134.205 15.5867 135.379 16.2C136.579 16.7867 137.512 17.64 138.179 18.76C138.845 19.8533 139.179 21.16 139.179 22.68C139.179 23.1333 139.152 23.5867 139.099 24.04C139.072 24.4667 139.019 24.9067 138.939 25.36H126.299C126.272 27.1733 126.499 28.68 126.979 29.88C127.459 31.0533 128.152 31.9333 129.059 32.52C129.992 33.08 131.072 33.36 132.299 33.36C133.445 33.36 134.512 33.1867 135.499 32.84C136.512 32.4933 137.539 31.8533 138.579 30.92L139.339 31.64C138.352 33.3733 137.112 34.6933 135.619 35.6C134.152 36.5067 132.445 36.96 130.499 36.96ZM126.299 24.12H133.899C133.952 23.8 133.979 23.4667 133.979 23.12C134.005 22.7733 134.019 22.4133 134.019 22.04C134.019 20.04 133.752 18.6133 133.219 17.76C132.712 16.9067 131.912 16.48 130.819 16.48C129.939 16.48 129.179 16.7333 128.539 17.24C127.899 17.72 127.392 18.52 127.019 19.64C126.645 20.76 126.405 22.2533 126.299 24.12ZM151.901 36.96C149.955 36.96 148.261 36.5467 146.821 35.72C145.408 34.8933 144.301 33.7067 143.501 32.16C142.701 30.5867 142.301 28.7067 142.301 26.52C142.301 24.2533 142.728 22.28 143.581 20.6C144.461 18.92 145.688 17.6133 147.261 16.68C148.835 15.7467 150.688 15.28 152.821 15.28C153.755 15.28 154.595 15.3867 155.341 15.6C156.088 15.8133 156.741 16.1067 157.301 16.48C157.008 15.6267 156.768 14.7867 156.581 13.96C156.421 13.1333 156.341 12.3467 156.341 11.6C156.341 10.8267 156.435 10.0533 156.621 9.28C156.835 8.50667 157.195 7.8 157.701 7.16C158.208 6.49333 158.915 5.97333 159.821 5.6C160.755 5.2 161.928 5 163.341 5C164.408 5 165.515 5.08 166.661 5.24C167.835 5.37333 169.035 5.57333 170.261 5.84V19.24H170.301C170.888 18.0133 171.755 17.0533 172.901 16.36C174.048 15.64 175.381 15.28 176.901 15.28C178.368 15.28 179.581 15.56 180.541 16.12C181.501 16.68 182.221 17.48 182.701 18.52C183.181 19.56 183.421 20.8267 183.421 22.32V33.52C183.421 34.1067 183.488 34.52 183.621 34.76C183.781 34.9733 184.115 35.1067 184.621 35.16L186.261 35.36V36.4H175.541V35.4L176.981 35.2C177.461 35.1467 177.768 35 177.901 34.76C178.035 34.52 178.101 34.1067 178.101 33.52V22.44C178.101 21.2667 178.008 20.3333 177.821 19.64C177.661 18.92 177.341 18.4 176.861 18.08C176.381 17.76 175.701 17.6 174.821 17.6C173.995 17.6 173.235 17.8 172.541 18.2C171.848 18.6 171.288 19.1867 170.861 19.96C170.461 20.7333 170.261 21.68 170.261 22.8V33.4C170.261 34.0133 170.315 34.44 170.421 34.68C170.555 34.92 170.821 35.0667 171.221 35.12L172.941 35.4V36.4H162.261V35.36L163.941 35.16C164.368 35.08 164.648 34.92 164.781 34.68C164.915 34.4133 164.981 33.9467 164.981 33.28V7.16C164.635 7.02667 164.248 6.93333 163.821 6.88C163.421 6.8 163.021 6.76 162.621 6.76C161.395 6.76 160.421 6.97333 159.701 7.4C159.008 7.8 158.501 8.37333 158.181 9.12C157.888 9.86667 157.741 10.76 157.741 11.8C157.741 12.9467 157.915 14.0933 158.261 15.24C158.635 16.36 158.995 17.32 159.341 18.12C159.608 18.4667 159.808 18.84 159.941 19.24C160.101 19.64 160.181 20.0533 160.181 20.48C160.181 21.04 160.075 21.5467 159.861 22C159.675 22.4267 159.368 22.7733 158.941 23.04C158.515 23.3067 157.981 23.44 157.341 23.44C156.515 23.44 155.875 23.2533 155.421 22.88C154.968 22.48 154.741 21.96 154.741 21.32C154.741 20.92 154.861 20.4533 155.101 19.92C155.368 19.36 155.795 18.6 156.381 17.64C155.901 17.2667 155.368 17 154.781 16.84C154.221 16.6533 153.581 16.56 152.861 16.56C151.875 16.56 150.995 16.8533 150.221 17.44C149.475 18.0267 148.888 18.96 148.461 20.24C148.035 21.4933 147.821 23.1067 147.821 25.08C147.821 27.7733 148.341 29.8267 149.381 31.24C150.448 32.6533 151.928 33.36 153.821 33.36C155.048 33.36 156.128 33.16 157.061 32.76C158.021 32.3333 158.888 31.7867 159.661 31.12L160.381 31.88C159.421 33.5333 158.248 34.8 156.861 35.68C155.475 36.5333 153.821 36.96 151.901 36.96Z" fill="black"/>
</g>
<defs>
<clipPath id="clip0_824_16">
<rect width="145" height="32" fill="white" transform="translate(42 5)"/>
</clipPath>
</defs>
</svg>
